<?xml version="1.0" encoding="utf-8"?><!-- Uploaded to: SVG Repo, www.svgrepo.com, Generator: SVG Repo Mixer Tools -->
<svg width="800px" height="800px" viewBox="0 0 20 20" fill="none" xmlns="http://www.w3.org/2000/svg">
<path d="M9.78103 1.69759C14.1038 4.63512 16.25 6.76176 16.25 8.30413C16.25 9.79646 15.4291 11.0034 13.8541 11.8872C13.418 12.132 12.9324 11.6555 13.1688 11.2148C13.5756 10.4565 13.4416 9.60793 12.7079 8.59803C11.934 7.53285 10.8174 6.75731 9.34301 6.26969C9.13826 6.20198 9 6.01063 9 5.79498V2.11114C9 1.70978 9.44906 1.47201 9.78103 1.69759Z" fill="#000000"/>
<path d="M7.75 17.75C5.97914 17.75 4.5 16.607 4.5 15.125C4.5 13.643 5.97914 12.5 7.75 12.5C9.52086 12.5 11 13.643 11 15.125C11 16.607 9.52086 17.75 7.75 17.75Z" fill="#000000"/>
<path d="M10 4C10.5523 4 11 4.44772 11 5V15C11 15.5523 10.5523 16 10 16C9.44772 16 9 15.5523 9 15V5C9 4.44772 9.44772 4 10 4Z" fill="#000000"/>
</svg>